<svg width="84" height="41" viewBox="0 0 84 41" fill="none" xmlns="http://www.w3.org/2000/svg">
<path d="M0 20.7436V19.1377C0.00839916 19.0537 0.0335966 18.978 0.0335966 18.8939C0.151185 16.422 0.680332 14.0426 1.68823 11.7893C4.08199 6.44199 8.14719 3.01161 13.7326 1.35528C16.0256 0.674249 18.3774 0.447239 20.7543 0.430423C22.6525 0.422016 24.5423 0.430423 26.4322 0.430423H26.6757V5.40783H19.8556C18.5789 5.40783 17.3107 5.50872 16.0676 5.78618C12.6239 6.54288 9.76822 8.26648 7.73563 11.1756C4.92191 15.2113 4.24998 19.6674 5.52665 24.3926C6.49255 27.9491 8.56714 30.7321 11.7504 32.6322C14.2198 34.112 16.9327 34.7426 19.7884 34.7678C23.7864 34.8014 27.7844 34.7762 31.774 34.7762C32.1436 34.7762 32.5047 34.709 32.8323 34.5408C33.8822 34.0111 34.403 33.1451 34.403 31.9764V8.33374C34.403 8.16558 34.403 7.99743 34.4114 7.82927C34.4534 7.33321 34.7137 6.98009 35.1337 6.86238C35.52 6.75308 35.9232 6.91282 36.2256 7.29117C36.276 7.35003 36.3096 7.41729 36.3516 7.48455C41.7438 16.1866 47.1529 24.8887 52.5619 33.5823C52.6627 33.7421 52.7719 33.9018 52.8979 34.0447C53.4607 34.6585 54.141 34.9948 54.9893 34.8183C55.804 34.6417 56.2828 34.0784 56.518 33.3133C56.6271 32.9517 56.6775 32.5566 56.6775 32.1698C56.6943 27.6212 56.6943 23.081 56.6943 18.5408V8.20762C56.6943 7.9722 56.7195 7.72838 56.7951 7.50137C56.9967 6.8876 57.6938 6.66059 58.223 7.03053C58.4078 7.16506 58.5673 7.35844 58.6933 7.56022L67.2773 21.3826C69.797 25.4352 72.3252 29.4877 74.8617 33.5403C75.0381 33.8261 75.2565 34.0952 75.5085 34.3054C76.6675 35.2723 78.255 34.8603 78.8345 33.4646C79.0193 33.0274 79.0613 32.565 79.0613 32.1025V0.758327C79.0613 0.657433 79.0697 0.556539 79.0697 0.447238H84V0.691065C84 11.4446 84 22.1982 83.9916 32.9517C83.9916 33.6496 83.9244 34.3642 83.7816 35.0453C83.3701 36.9959 82.337 38.5345 80.5563 39.4846C78.6833 40.4767 76.7263 40.5187 74.7525 39.8293C72.7283 39.123 71.2249 37.7694 70.133 35.9533C67.3865 31.3963 64.6399 26.8309 61.885 22.2738L61.7506 22.0721L61.7002 22.0805V32.8172C61.7002 33.6664 61.6414 34.5072 61.4231 35.3311C60.7847 37.6601 59.3737 39.2912 57.0303 39.9806C54.8633 40.6196 52.8139 40.2245 50.8989 39.0726C49.5298 38.2486 48.5303 37.0799 47.7156 35.7263C45.0027 31.2197 42.273 26.7216 39.5516 22.215L39.4341 22.0384C39.3921 22.1393 39.3921 22.2234 39.3921 22.3075V32.195C39.3921 33.1031 39.2661 34.0027 39.0141 34.8771C38.4346 36.8445 37.2503 38.2991 35.3605 39.1315C34.2098 39.6359 32.9919 39.8125 31.7404 39.8125H20.9307C18.6713 39.8125 16.4456 39.5518 14.2618 38.9465C11.4565 38.173 8.91151 36.895 6.71093 34.978C2.68773 31.472 0.587941 26.9822 0.0923908 21.7105C0.050395 21.3826 0.0251975 21.0631 0 20.7436ZM57.8282 0.295898C58.139 0.346345 58.4498 0.379975 58.7605 0.447238C60.4572 0.800364 61.8514 1.69159 63.0357 2.92753C63.7412 3.66742 64.3292 4.49979 64.8415 5.39102L72.6359 18.7762C72.6779 18.8519 72.7199 18.9191 72.8123 18.978V0.455646H77.7594V32.2539C77.7594 32.4977 77.7426 32.7499 77.667 32.977C77.4655 33.6075 76.8019 33.7841 76.3064 33.3469C76.1636 33.2208 76.0544 33.0694 75.9536 32.9097C71.1409 25.1829 66.3366 17.4478 61.5406 9.72102C60.9443 8.76254 60.3648 7.78723 59.7516 6.82875C59.3989 6.27383 58.9285 5.85344 58.2818 5.66847C57.0723 5.31534 55.9048 6.01319 55.5604 7.30799C55.4765 7.63589 55.4429 7.98902 55.4429 8.32533L55.4345 32.0941C55.4345 32.3548 55.4261 32.6154 55.3757 32.8676C55.3085 33.204 55.1405 33.4814 54.7877 33.5739C54.4434 33.6664 54.1494 33.5235 53.9142 33.2712C53.8218 33.1703 53.7378 33.0694 53.6706 32.9517C48.27 24.2581 42.8777 15.5728 37.4939 6.87919C37.0319 6.13931 36.4104 5.65166 35.5284 5.58439C34.5205 5.50032 33.6386 6.11408 33.3195 7.14824C33.2103 7.50978 33.1515 7.90494 33.1515 8.2917C33.1431 16.1698 33.1431 24.0479 33.1431 31.9344C33.1431 32.0773 33.1431 32.2287 33.1179 32.3716C32.9751 33.0947 32.404 33.5403 31.6312 33.5403H20.3092C20.158 33.5403 19.9984 33.5403 19.8472 33.5319C17.8314 33.4898 15.8576 33.1787 13.993 32.38C10.1378 30.7237 7.70203 27.823 6.67733 23.7788C5.69463 19.9028 6.17338 16.1782 8.23958 12.731C10.0874 9.64535 12.8507 7.79564 16.3532 7.03053C17.4535 6.78671 18.5789 6.68581 19.7044 6.69422H26.7009V11.6212H26.4406C24.1224 11.6212 21.7958 11.5623 19.4777 11.6464C16.37 11.7557 13.8586 13.0673 12.3132 15.8251C10.5997 18.8771 10.6333 21.9796 12.5819 24.9475C13.5394 26.4105 14.9337 27.3437 16.5631 27.9407C17.907 28.4283 19.3013 28.6133 20.7207 28.6217H26.7765C27.6332 28.6217 28.1708 28.0836 28.1708 27.226V10.6711C28.1708 9.64535 28.1624 8.6112 28.1708 7.58545C28.196 5.4835 28.8847 3.6506 30.4134 2.18765C31.5472 1.10305 32.8995 0.489278 34.4618 0.346346C34.5121 0.337938 34.5709 0.321122 34.6213 0.304307H35.5452L35.688 0.346346C37.1411 0.48087 38.4262 1.03578 39.5852 1.91019C40.8283 2.85187 41.769 4.05418 42.5417 5.39102C45.1287 9.86396 47.724 14.3369 50.311 18.8014C50.3446 18.8603 50.3782 18.9107 50.4202 18.9612L50.4622 18.9528V18.6921C50.4622 15.06 50.4538 11.4278 50.4706 7.79564C50.4706 7.14824 50.5209 6.47562 50.6721 5.85344C51.3693 3.0032 53.1331 1.1619 56.014 0.455646C56.3164 0.379976 56.6355 0.354753 56.9463 0.304307C57.2319 0.295899 57.5342 0.295898 57.8282 0.295898Z" fill="white"/>
</svg>
