<svg width="112" height="31" viewBox="0 0 112 31" fill="none" xmlns="http://www.w3.org/2000/svg">
<path d="M10.3373 2.76976L13.3053 2.79288L16.2732 2.816L16.9564 3.07032C18.558 3.65988 19.7115 4.86213 20.6747 6.95451C20.8875 7.42847 21.1675 8.11051 21.2907 8.48044C21.4139 8.85036 21.5147 9.16248 21.5259 9.17404C21.5371 9.1856 21.8059 9.1278 22.1195 9.02376L22.6907 8.8388L22.6459 6.12218C22.6235 4.61937 22.5899 2.8738 22.5563 2.18019L22.5115 0.954824H0L0.0223995 1.42879L0.0447989 1.92587L0.772781 2.00679C1.74716 2.13395 2.09435 2.23799 2.48634 2.527C3.07993 2.96628 3.44952 3.61364 3.67351 4.64249C4.0319 6.23778 4.1551 9.8214 4.0991 16.5378C4.0319 23.6241 3.9423 25.1038 3.50552 26.5373C3.14712 27.7164 2.47514 28.3407 1.36637 28.5256C1.06397 28.5719 0.683183 28.6643 0.459189 28.7106L0.111997 28.7915V29.7394H14.4477V29.2308C14.4477 28.9765 14.4253 28.7684 14.4029 28.7684C14.0109 28.7684 12.2301 28.3638 11.9389 28.2135C10.9085 27.6817 10.4493 26.4101 10.259 23.7166C10.1246 21.7977 10.0014 16.1563 10.0798 16.0754C10.1582 15.9945 13.5629 16.1332 13.9773 16.2373C15.0748 16.5147 15.926 17.6245 16.3516 19.37L16.542 20.133L17.0012 20.1561L17.4604 20.1792V10.5497H16.99C16.4972 10.5497 16.4636 10.5497 16.4636 10.7231C16.4636 11.0352 16.1612 12.0294 15.87 12.6536C15.422 13.6478 14.7836 14.2374 13.9661 14.4223C13.7645 14.4686 12.8237 14.5495 11.8717 14.5957C10.5277 14.6535 10.1246 14.6535 10.0686 14.5726C9.97896 14.4339 10.1918 3.4518 10.2926 2.94316L10.3373 2.76976ZM36.5223 11.0237C34.8536 9.39368 32.7368 8.6076 30.0041 8.6076C27.1033 8.6076 24.7738 9.54396 22.9706 11.3936C21.0443 13.3935 20.0363 16.191 20.0363 19.451C20.0363 22.8496 20.9547 25.5894 22.7355 27.5083C23.7098 28.5719 24.673 29.1961 26.0506 29.7047C26.5322 29.8781 26.8905 29.9591 28.1897 30.2134C28.3017 30.2365 29.0409 30.2365 29.8473 30.2249C30.9337 30.2018 31.4824 30.1556 31.9864 30.0284C33.42 29.6816 34.5624 29.1499 35.5815 28.3753C38.0679 26.4564 39.423 23.5201 39.5574 19.8093C39.6694 16.1563 38.6055 13.0351 36.5223 11.0237ZM32.3224 27.1268C31.9416 27.8667 31.236 28.5487 30.6649 28.7221C28.4473 29.3926 26.8794 27.2309 26.2634 22.6762C26.0618 21.2081 26.073 17.2083 26.2634 15.5205C26.7002 11.8675 27.7865 10.0064 29.5225 10.0064C30.2953 10.0064 30.7209 10.2029 31.3256 10.8271C32.7704 12.3299 33.4536 15.1968 33.4536 19.7053C33.4536 23.3351 33.1064 25.6009 32.3224 27.1268ZM111.505 20.815C110.855 19.3585 109.645 18.4799 106.823 17.2314C104.729 16.3182 103.429 15.5321 102.948 14.8269C102.466 14.2489 102.388 13.7981 102.388 13.0235C102.388 11.856 102.791 10.9659 103.597 10.411C104.325 9.94857 105.132 9.83296 106.185 10.0642C107.394 10.3647 108.279 11.1277 109.097 12.538C109.343 12.9889 109.903 14.2605 110.149 15.035C110.228 15.1506 110.194 15.1622 110.519 15.0812C110.676 15.0234 110.889 14.9541 110.889 14.9194V12.2721L110.844 9.67112L110.541 9.54396C110.06 9.32432 108.772 8.96596 107.965 8.80412C107.316 8.67696 106.756 8.65384 105.221 8.65384C103.441 8.65384 103.284 8.6654 102.556 8.87348C100.372 9.48616 98.7592 10.7347 97.9528 12.4687C97.5496 13.405 97.3928 14.1102 97.3928 15.2315C97.3928 16.8153 97.796 17.9944 98.7704 19.0117C99.4984 19.8902 100.551 20.5145 102.321 21.185C103.698 21.7167 105.143 22.4566 105.714 22.919C106.039 23.1964 106.274 23.5085 106.442 23.8553C106.689 24.364 106.767 24.4333 106.767 25.2194C106.767 25.9824 106.689 26.098 106.442 26.6066C105.882 27.9476 104.661 28.6065 103.049 28.4678C100.865 28.2829 99.3304 26.7916 98.0424 23.6473C97.7176 22.8265 97.7176 22.8149 97.2361 22.9999L96.9897 23.0924L97.0681 26.0286C97.0681 28.6412 97.068 28.9765 97.2248 29.0689C97.5496 29.3579 99.8904 29.9244 101.503 30.1209C102.791 30.2827 104.65 30.2828 105.625 30.1325C109.097 29.5891 111.281 27.6933 111.84 24.7917C112.154 23.4161 111.986 21.8554 111.505 20.815ZM90.5162 9.11624C89.6314 8.75788 88.7355 8.6076 87.5259 8.6076C84.782 8.6076 82.5196 9.54396 80.7389 11.4283C79.2829 12.9311 78.4765 14.6073 77.9949 16.9771C77.8381 17.6938 77.8381 18.0637 77.8381 19.555C77.8381 21.0462 77.8381 21.4277 77.9949 22.1098C78.8797 26.4795 81.7132 29.3579 85.7451 30.0978C86.7195 30.2827 88.2427 30.2943 89.217 30.1325C91.0762 29.8203 92.9353 28.8955 94.2233 27.6008C94.9513 26.8956 95.1977 26.5488 95.1081 26.3639C94.8617 25.8899 94.8617 25.8899 94.1337 26.3176C93.0809 27.0112 92.521 27.1962 91.2218 27.3465C89.7658 27.5083 88.3099 27.2424 87.1003 26.5604C86.2155 26.1096 85.1627 25.0807 84.6812 24.1443C84.0316 22.8727 83.6284 21.3815 83.55 19.4741C83.4716 18.6649 83.4716 18.4915 83.55 18.4337C83.6284 18.3874 86.2939 18.3874 89.609 18.3874H95.5337V18.0869C95.5337 17.532 95.3657 16.0754 95.2089 15.3009C94.5593 12.2143 92.9354 10.0064 90.5162 9.11624ZM89.4858 16.6765L88.1419 16.7228C87.3355 16.7459 86.0811 16.7806 85.2747 16.7921L83.774 16.8153V16.48C83.774 16.2835 83.83 15.8095 83.9196 15.3934C84.4012 12.0294 85.5771 10.0295 87.1115 10.0295C88.4779 10.0179 89.2618 12.0178 89.4858 15.6361V16.6765ZM55.8642 8.87348C55.2707 8.63072 54.7555 8.52668 54.1395 8.53824C54.0499 8.53824 53.9603 8.53824 53.8595 8.5498C51.8547 8.6654 50.074 10.041 48.7972 12.4571C48.5844 12.8617 48.3604 13.1854 48.3044 13.1854C48.226 13.1854 48.2148 12.723 48.2596 10.8965L48.3156 8.59604L48.1252 8.64228C48.0244 8.6654 46.4005 9.00064 44.5413 9.39368C40.5318 10.2144 39.983 10.3416 39.8934 10.3994C39.8486 10.4225 39.8262 10.5728 39.8262 10.7347C39.8262 11.0468 39.7814 11.0237 40.6998 11.1739C41.9542 11.382 42.391 12.0178 42.5702 13.8443C42.8166 16.2488 42.727 25.5894 42.4358 26.861C42.2902 27.5083 41.9206 28.1441 41.551 28.3638C41.4054 28.4447 40.9686 28.5834 40.5766 28.6643L39.8598 28.8031L39.8374 29.2655L39.815 29.7279H51.6308V28.7799L51.026 28.7221C49.5924 28.595 49.2564 28.4447 48.8756 27.8898C48.3268 27.069 48.2708 25.5662 48.2708 19.4625V14.7113L48.4164 14.4917C48.6628 14.2142 49.4356 13.8328 49.9844 13.7056C51.1156 13.4628 52.5603 13.6709 53.6803 14.2489C54.0051 14.4108 54.2739 14.5379 54.2963 14.5148C54.3299 14.4801 56.189 9.40524 56.245 9.1856C56.2898 9.09312 56.1778 9.00064 55.8642 8.87348ZM74.691 13.1854C73.5934 10.989 71.7455 9.46305 69.6287 9.0122C68.0496 8.6654 66.0112 8.94284 64.4656 9.68268C64.0736 9.86765 63.7041 10.0179 63.6369 10.0179C63.5361 10.0179 63.5249 9.40524 63.5473 5.16269L63.5809 0.295898L63.2561 0.36526C63.0769 0.4115 61.2625 0.758304 59.2242 1.15135C57.1858 1.54439 55.4275 1.87963 55.3379 1.90275C55.1923 1.93743 55.1587 1.99523 55.1811 2.26111C55.1923 2.55011 55.2259 2.57324 55.5171 2.6426C56.5474 2.8738 56.7266 2.95472 57.1074 3.35932C57.5666 3.8564 57.7906 4.49221 57.925 5.82162C58.0258 6.88515 58.0594 25.0692 57.9474 27.7511L57.8914 29.3464L58.7202 29.5313C61.8673 30.2365 65.0144 30.4677 66.9744 30.1671C69.4271 29.7972 71.2191 28.9187 72.7422 27.3812C74.9262 25.1616 75.9678 22.0057 75.8894 18.1331C75.8222 16.1101 75.4974 14.8038 74.691 13.1854ZM69.6959 21.4855C69.3375 24.3987 68.408 26.7454 67.1872 27.8898C66.7056 28.3407 66.2464 28.5834 65.664 28.699C65.2384 28.7799 65.104 28.7799 64.3424 28.7221C64.0065 28.699 63.9393 28.6528 63.8721 28.4794C63.7713 28.1904 63.6481 18.4337 63.6929 14.5264L63.7265 11.4745L64.264 11.3127C64.6224 11.2086 65.0368 11.1508 65.5184 11.1508C66.2016 11.1508 66.2912 11.1739 66.8624 11.4629C68.2512 12.1681 69.2031 13.9252 69.6511 16.6072C69.8191 17.6013 69.8415 20.2948 69.6959 21.4855Z" fill="white"/>
</svg>
