<svg width="66" height="37" viewBox="0 0 66 37" fill="none" xmlns="http://www.w3.org/2000/svg">
<path d="M35.462 10.9195C30.5582 10.9195 26.2945 13.6472 24.1429 17.6539C21.9913 13.6472 17.7277 10.9195 12.8239 10.9195C9.93966 10.9195 7.27984 11.8592 5.13483 13.4515V2.78214C5.10183 1.40525 3.96662 0.295898 2.56081 0.295898C1.15501 0.295898 0.0330002 1.40525 0 2.78214V23.8076H0.00660004C0.118801 30.7116 5.81463 36.2714 12.8173 36.2714C17.7211 36.2714 21.9847 33.5437 24.1363 29.537C26.2879 33.5437 30.5516 36.2714 35.4554 36.2714C42.5372 36.2714 48.2727 30.5942 48.2727 23.5987C48.2793 16.5968 42.5438 10.9195 35.462 10.9195ZM12.8173 31.1945C8.57345 31.1945 5.12823 27.7947 5.12823 23.5922C5.12823 19.3963 8.56685 15.9899 12.8173 15.9899C17.0611 15.9899 20.5063 19.3897 20.5063 23.5922C20.5063 27.7882 17.0611 31.1945 12.8173 31.1945ZM35.462 31.1945C31.2182 31.1945 27.773 27.7947 27.773 23.5922C27.773 19.3963 31.2116 15.9899 35.462 15.9899C39.7058 15.9899 43.151 19.3897 43.151 23.5922C43.151 27.7882 39.7058 31.1945 35.462 31.1945ZM65.5186 32.2778L58.9581 23.6053L65.5186 14.9328C66.3304 13.8169 66.0928 12.2573 64.9774 11.4285C63.862 10.5998 62.278 10.8086 61.4199 11.8919L55.7571 19.3832L50.0943 11.8919C49.2363 10.8086 47.6523 10.5998 46.5369 11.4285C45.4215 12.2573 45.1839 13.8169 45.9957 14.9328L52.5561 23.6053L45.9957 32.2778C45.1839 33.3936 45.4215 34.9532 46.5369 35.782C47.6523 36.6107 49.2363 36.4019 50.0943 35.3187L55.7505 27.8338L61.4133 35.3252C62.2714 36.4084 63.8554 36.6173 64.9708 35.7885C66.0862 34.9598 66.3304 33.3936 65.5186 32.2778Z" fill="white"/>
</svg>
