<svg width="120" height="34" viewBox="0 0 120 34" fill="none" xmlns="http://www.w3.org/2000/svg">
<path d="M70.536 25.031V18.7549H80.808V11.9191H70.536V7.3937H80.808V0.295898H63V32.1288H80.808V25.031H70.536ZM108.408 11.9191H99.18L94.848 16.8257L90.36 11.9191H80.808L89.856 22.0299L80.808 32.1288H90.084L94.476 27.1746L98.928 32.1288H108.528L99.384 21.9942L108.408 11.9191ZM116.136 25.2216C114.084 25.2216 112.272 26.7459 112.272 28.9967C112.272 31.2475 114.084 32.7719 116.136 32.7719C118.188 32.7719 120 31.2475 120 28.9967C120 26.7459 118.188 25.2216 116.136 25.2216ZM116.136 32.1884C114.336 32.1884 113.016 30.8426 113.016 29.0086C113.016 27.1746 114.324 25.8289 116.136 25.8289C117.948 25.8289 119.256 27.1746 119.256 29.0086C119.256 30.8426 117.948 32.1884 116.136 32.1884ZM116.964 28.9253V28.9134C117.42 28.8538 117.756 28.437 117.756 27.9249C117.756 27.0913 117.3 26.6745 116.328 26.6745H114.648V31.2595H115.344V29.1754H116.004C116.46 29.1754 116.664 29.3064 116.784 29.6875C116.928 30.1995 116.904 30.8188 117.084 31.2475H117.876C117.732 31.0808 117.648 30.3663 117.588 29.9614C117.492 29.3302 117.348 28.9848 116.964 28.9253ZM116.16 28.568H115.332V27.2818H116.16C116.82 27.2818 117 27.5557 117 27.913C117 28.2226 116.82 28.568 116.16 28.568ZM55.488 13.3244H55.404C53.736 11.4309 51.66 10.764 49.248 10.764C44.304 10.764 40.596 14.0985 39.288 18.5049C37.8 13.646 33.96 10.6806 28.26 10.6806C23.64 10.6806 19.98 12.7409 18.084 16.0992V11.9311H8.52V7.40561H18.948V0.307808H0V32.1407H8.52V18.7549H17.016C16.764 19.7315 16.632 20.7914 16.632 21.8989C16.632 28.5442 21.744 33.2006 28.272 33.2006C33.756 33.2006 37.38 30.6402 39.288 25.9837H31.992C31.008 27.389 30.252 27.8058 28.284 27.8058C25.992 27.8058 24.024 25.8289 24.024 23.4709H38.892C39.54 28.7466 43.68 33.2959 49.356 33.2959C51.804 33.2959 54.048 32.105 55.428 30.0805H55.512V32.1407H63V0.295898H55.488V13.3244ZM24.24 18.8502C24.708 16.8257 26.292 15.5038 28.272 15.5038C30.444 15.5038 31.944 16.7899 32.34 18.8502H24.24ZM50.928 27.2818C48.156 27.2818 46.44 24.7214 46.44 22.0538C46.44 19.1956 47.94 16.4446 50.928 16.4446C54.036 16.4446 55.272 19.1956 55.272 22.0538C55.272 24.769 53.952 27.2818 50.928 27.2818Z" fill="white"/>
</svg>
