<svg width="80" height="83" viewBox="0 0 80 83" fill="none" xmlns="http://www.w3.org/2000/svg">
<path d="M24.5032 45.6185C24.5032 45.6185 26.7372 40.9529 22.5802 37.5255C18.4068 34.0898 12.3023 35.8199 10.011 37.3123C7.71156 38.8046 8.52987 40.4446 8.75899 40.6659C8.9963 40.9037 9.5282 41.1989 11.9913 40.2478C11.9913 40.2478 5.67397 47.4307 2.6626 62.6903C2.6626 62.6903 2.16343 66.4621 3.59547 66.6343C5.01933 66.7983 5.88673 64.65 6.3859 63.338C6.59866 62.7805 15.8865 41.2563 14.1926 40.0838C14.1926 40.0838 19.9944 39.764 20.6245 43.7162C21.2627 47.6603 15.1582 50.7187 13.3743 51.0795C11.574 51.4321 11.6149 52.1537 11.7295 52.2521C11.844 52.3505 12.2286 52.8671 14.5444 52.5145C16.8602 52.1619 22.1874 50.5547 24.5032 45.6185ZM33.7992 36.9515C33.6765 35.1312 33.2428 34.9672 32.6127 35.0492C31.9989 35.1312 31.9253 35.9839 31.9253 35.9839C27.4655 41.8713 26.95 43.7654 26.7209 45.5284C26.4999 47.2913 27.3591 49.5134 28.7584 49.5216C30.1496 49.538 29.724 48.3326 29.724 48.3326C29.6995 48.0374 30.9351 45.1594 31.5898 43.9868C33.0464 41.4367 33.9383 38.7882 33.7992 36.9515ZM57.9557 46.1597C57.8002 45.8973 57.4238 45.7579 56.9901 45.9383C56.5564 46.1187 54.9279 46.4713 53.9951 46.5779C53.0458 46.6927 50.91 46.5041 46.9249 45.8235C42.9397 45.143 39.5928 45.8071 39.5928 45.8071L44.6172 41.0431C44.6172 41.0431 47.7677 37.5747 48.1769 36.3201C48.5697 35.0656 47.6859 34.4506 47.0885 34.3768C46.4912 34.303 41.9414 34.4342 40.4193 34.672C38.8973 34.9262 37.8007 34.7868 36.9333 34.7294C36.0659 34.672 35.7059 35.4182 35.7059 35.4182C34.8466 37.1975 37.9562 37.6075 37.9562 37.6075C40.0102 37.8207 43.758 37.0335 43.758 37.0335C37.3425 42.2895 33.9138 45.4628 33.2428 46.5205C32.7845 47.2585 32.0971 48.5868 32.9891 49.6118C33.881 50.6285 35.9595 49.5298 35.9595 49.5298C38.5945 48.759 43.4061 48.8328 43.4061 48.8328C43.4061 48.8328 45.902 48.8082 50.1817 48.9558C54.4615 49.1116 56.7364 47.6275 57.391 47.2257C58.0539 46.8157 58.1275 46.4221 57.9557 46.1597ZM63.2092 41.6253C63.0537 41.1333 62.4727 41.3055 62.3418 41.3465C62.2272 41.3711 62.0227 41.4039 61.0898 41.5433C60.1569 41.6827 57.4319 41.2235 56.9655 41.1661C56.4909 41.1087 54.8052 40.9283 54.8052 40.9283C55.0179 40.8545 61.0079 34.6966 61.0079 34.6966C61.0079 34.6966 62.8082 32.7697 61.8181 31.7201C60.6479 30.5066 58.4957 30.8427 58.4957 30.8427C58.4957 30.8427 51.5647 31.8513 51.1883 31.7775C50.7709 31.7201 50.5745 31.6135 50.2963 31.6135C50.0181 31.6299 49.6417 31.8103 49.4698 31.9743C48.8724 32.5319 49.257 33.524 49.257 33.524C49.3798 33.9996 49.9281 34.4916 50.3699 34.672C51.3356 35.0738 57.2028 34.3358 57.2028 34.3358L50.2881 39.9936C50.2881 39.9936 48.5615 41.2399 47.9478 42.9127C47.334 44.5936 48.406 44.6592 48.5615 44.6428C48.6842 44.6428 49.8135 44.3476 50.8937 44.2656C51.9575 44.1836 54.8706 44.3066 55.9017 44.3804C56.9491 44.4214 59.4123 44.3558 61.1061 43.6096C62.7755 42.8717 63.381 42.1255 63.2092 41.6253ZM31.107 63.748C31.0661 63.9448 30.3541 66.4293 30.2969 68.1758C30.2232 69.9224 30.9842 70.6767 31.7371 70.7341C32.5063 70.7915 33.2837 70.234 33.9301 69.2664C34.5684 68.2988 36.2214 61.1159 36.2214 61.1159L38.6027 59.5662C38.6027 59.5662 39.2164 59.0906 38.9955 58.7134C38.7745 58.3526 38.3817 58.5494 38.3817 58.5494L36.696 59.1808C36.696 59.1808 37.768 52.9491 37.9398 51.8995C38.1035 50.8499 37.2116 50.8089 36.9906 50.8089C36.7697 50.8089 36.3196 50.8909 34.9858 53.154C33.6356 55.4172 32.2117 60.4108 32.2117 60.4108L26.0826 61.7063C26.0826 61.7063 30.1987 51.2107 28.1202 51.2845C26.0417 51.3583 21.05 62.7723 21.05 62.7723C21.05 62.7723 18.5951 63.0838 17.1466 63.3462C17.1466 63.3462 16.0828 63.5102 15.9601 64.3138C15.8455 65.0928 16.2711 65.5847 16.2711 65.5847C16.762 66.2735 19.6179 66.5769 19.6179 66.5769C18.9797 68.5448 18.1695 71.9723 18.1777 73.0218C18.1941 74.0714 18.3741 75.8343 19.6425 75.9819C20.5754 76.0967 21.7455 75.4653 22.2938 74.4978C22.8503 73.5302 24.7078 66.0603 24.7078 66.0603C25.5589 65.9701 31.107 63.748 31.107 63.748ZM74.4118 63.9694C74.2973 63.4118 73.7981 63.5184 73.7981 63.5184C73.7981 63.5184 71.4987 63.6742 66.4661 64.2564C63.7984 64.5598 60.1978 65.4289 57.4074 66.1751L59.0767 61.2143L61.4744 54.712C62.3909 54.5562 71.0813 51.0631 71.0813 51.0631C71.0813 51.0631 71.9733 50.6695 71.8914 50.3252C71.7933 49.907 71.2777 50.03 71.2777 50.03L62.841 51.6207L64.0111 49.2428C64.0111 49.2428 64.6494 47.8325 63.7575 47.2175C62.8655 46.6189 62.3091 47.3733 62.3091 47.3733C61.7935 47.8489 58.9785 52.4161 58.9785 52.4161C58.9785 52.4161 57.1128 52.7523 56.7364 52.8097C56.36 52.8671 55.9672 52.7851 55.9672 52.7851C55.2798 52.4325 53.7659 52.7277 53.8478 54.0724L57.5138 55.4007V55.4417C57.5138 55.4417 56.1636 59.0168 55.7953 61.0913C55.4353 63.1576 55.6153 66.2325 55.6399 66.4457C55.6399 66.4949 55.6562 66.5687 55.6808 66.6589C54.1178 67.0935 53.0867 67.4133 53.0867 67.4133L48.0787 69.045L33.3328 74.8996C33.3328 74.8996 27.7274 77.4169 25.6325 78.1302C23.3576 78.901 23.8159 80.5081 23.8159 80.5081C23.9386 81.2215 24.2496 81.9513 25.8207 82.2301C27.3837 82.5089 29.3067 81.8119 29.3067 81.8119C29.3067 81.8119 44.9528 74.9242 46.172 74.4322C47.4568 73.891 58.3157 69.2336 73.7163 64.609C73.7326 64.6008 74.51 64.486 74.4118 63.9694ZM79.9518 37.9683C79.8781 37.6895 78.3643 37.5091 77.8078 37.4517C77.2514 37.4107 76.7604 37.1319 76.5231 36.4841C76.3021 35.8691 77.1123 33.9258 77.4723 32.5565C77.8487 31.1871 77.0959 30.6951 76.6622 30.6542C76.2448 30.6132 75.7129 31.0067 75.7129 31.0067C70.1239 29.8342 63.7902 35.7543 63.422 38.3864C63.1601 40.297 63.7002 41.6581 65.2877 41.9943C66.867 42.3305 68.2991 41.7565 69.5429 41.2645C70.7704 40.8053 73.2253 38.903 73.2253 38.903C73.4626 39.5016 74.7883 40.1084 75.9994 40.1494C77.2104 40.2068 79.3217 39.231 79.6817 38.9768C80.05 38.739 80.0336 38.247 79.9518 37.9683ZM72.767 35.5494C72.6443 35.8855 72.6034 36.3857 72.6034 36.3857C72.6034 36.3857 70.6394 37.5173 69.7475 37.8699C68.8228 38.2306 67.6935 38.1651 67.6935 38.1651C68.8228 34.3194 73.6344 33.565 73.6344 33.565C73.6344 33.565 72.8898 35.2296 72.767 35.5494ZM33.8729 32.0973C34.863 31.2199 37.8089 26.6609 38.0135 26.2837C38.2263 25.9065 38.3736 25.4884 38.1117 25.2096C37.8498 24.9308 37.2034 25.2506 37.2034 25.2506C37.2034 25.2506 35.8204 25.6524 34.1102 26.7183C32.3835 27.7925 31.5407 29.3996 31.2952 29.9736C31.0415 30.5476 30.9433 31.9169 31.6552 32.3187C32.359 32.7451 33.2509 32.6467 33.8729 32.0973ZM52.9067 54.8514C52.3912 53.4656 51.1801 54.3922 51.1801 54.3922C50.5827 54.8678 49.2816 57.5245 49.2816 57.5245C48.2178 59.2956 43.0052 62.5591 43.0052 62.5591C43.6598 60.8699 43.7826 59.2628 43.6926 58.2788C43.5944 57.3031 42.7842 55.8763 41.5977 55.6549C40.4275 55.4172 39.2573 55.7369 39.0037 56.0321C38.7254 56.3355 38.8236 56.6307 39.4046 56.9423C39.9938 57.2375 40.272 57.8771 40.272 57.8771C40.3948 58.1394 40.2557 58.574 40.2475 58.656C40.2311 58.7298 39.1837 61.8867 39.1837 61.8867C39.1837 61.8867 38.2672 64.9206 39.5847 65.8963C40.9103 66.8885 41.8186 66.7901 43.9217 65.8389L48.5206 61.2799C48.4469 63.6988 49.8299 64.896 50.6236 65.5437C51.4174 66.1833 51.9738 66.0029 51.9738 66.0029C52.7676 65.5437 52.2684 64.8468 52.1948 64.7074C52.1211 64.5844 52.1539 60.337 52.5466 58.1394C52.9476 55.9419 52.9067 54.8514 52.9067 54.8514ZM23.8813 15.8537C23.9795 15.8947 24.0941 15.8783 24.1023 15.8291C24.1268 15.7882 29.2331 8.31005 29.2331 8.31005L39.8301 5.80915C39.8301 5.80915 49.257 2.84907 49.4125 2.77528C49.5762 2.71788 50.3454 2.38169 50.0835 1.58632C49.8053 0.790955 49.0361 0.91395 49.0361 0.91395L44.9773 1.96351C44.9773 1.96351 29.2985 6.46513 28.6848 6.66192C28.0547 6.85871 27.9074 7.31789 27.9074 7.31789C26.3035 10.032 23.8486 15.0912 23.7504 15.3946C23.644 15.6898 23.7668 15.8128 23.8813 15.8537ZM53.9705 6.94071C53.9705 6.94071 54.486 10.3354 54.7643 10.9831C55.0589 11.6227 57.0801 12.2951 57.0801 12.2951C61.1143 13.2627 76.6294 18.8466 76.6294 18.8466C76.6294 18.8466 77.6032 19.2238 77.7833 19.2402C77.9633 19.2566 78.5197 19.1582 78.7325 18.6088C78.9534 18.0513 78.4952 17.6003 78.4543 17.5757C78.4134 17.5511 78.0042 17.3543 78.0042 17.3543C73.6917 15.1158 65.2304 12.1393 64.8131 12.0327C64.4121 11.9179 56.5973 9.6466 56.5973 9.6466C56.5973 9.6466 54.306 3.26726 54.1587 2.83267C54.0196 2.39809 52.9476 0.43017 52.9476 0.43017C52.9476 0.43017 52.8494 0.249777 52.7267 0.307175C52.6039 0.364573 52.653 0.503967 52.653 0.503967L53.9705 6.94071ZM30.4769 27.1529L32.1953 26.8495C32.5881 26.4887 33.0218 26.1197 33.5455 25.7999C35.174 24.7832 36.5324 24.3322 36.8351 24.2338C37.4734 23.955 38.3245 23.873 38.8891 24.4552C39.1428 24.7094 39.3637 25.0948 39.3392 25.6442L40.0347 25.5294L40.0511 25.513C49.0443 23.9632 68.8473 22.6513 68.8473 22.6513C69.5756 22.5365 71.5396 21.8805 71.1631 19.9372C70.8686 18.412 68.3073 18.33 67.9308 18.371C67.5544 18.3956 41.9496 21.7821 40.2475 22.0609C30.9842 23.586 15.0845 27.5793 15.0845 27.5793L5.33028 30.4574C5.51031 30.0966 13.3088 24.57 13.767 24.2256C14.2253 23.873 23.2676 18.3137 23.2676 18.3137C23.2676 18.3137 23.9959 18.0349 23.7586 17.5839C23.5622 17.1821 23.1858 17.3051 23.1858 17.3051C23.1858 17.3051 22.6293 17.5429 21.0091 18.2235C17.8749 19.5682 12.8342 22.5939 12.8342 22.5939C8.85719 24.816 0.518633 31.5971 0.518633 31.5971C0.518633 31.5971 -0.307858 32.1547 0.125846 33.1632C0.543183 34.18 1.67245 34.057 1.67245 34.057L13.7752 30.7853C14.6754 30.3754 30.4769 27.1529 30.4769 27.1529ZM74.5264 67.5937V67.5773C74.7064 67.5363 74.8455 67.4133 74.8455 67.1837C74.8455 67.0279 74.7883 66.9295 74.6901 66.8475C74.5919 66.7737 74.4364 66.7327 74.1909 66.7327C73.9945 66.7327 73.8717 66.7491 73.7408 66.7737V68.3808H73.9945V67.6921H74.1745C74.3873 67.6921 74.4773 67.774 74.5264 67.9872C74.5509 68.2004 74.6 68.348 74.641 68.389H74.9028C74.8783 68.348 74.8292 68.2496 74.8046 67.9954C74.7637 67.7495 74.6655 67.6265 74.5264 67.5937ZM74.1745 67.4953H73.9945V66.9541C74.0354 66.9377 74.0927 66.9377 74.1745 66.9377C74.4691 66.9377 74.5755 67.0771 74.5755 67.2165C74.5755 67.4133 74.3873 67.4953 74.1745 67.4953ZM74.2727 66.1013H74.2564C73.479 66.1013 72.8325 66.7409 72.8325 67.5527C72.8325 68.3808 73.4708 69.004 74.2564 69.004C75.0665 69.004 75.6966 68.3726 75.6966 67.5527C75.6966 66.7409 75.0665 66.1013 74.2727 66.1013ZM74.2727 68.7826C73.6344 68.7826 73.1025 68.2414 73.1025 67.5527C73.1025 66.8639 73.6344 66.3227 74.2564 66.3227H74.2727C74.911 66.3227 75.4265 66.8639 75.4265 67.5527C75.4265 68.2414 74.911 68.7826 74.2727 68.7826Z" fill="white"/>
</svg>
