<svg width="236" height="47" viewBox="0 0 236 47" fill="none" xmlns="http://www.w3.org/2000/svg">
<path d="M74.5312 0.295898L33.7793 28.1295L30.6375 32.0418L35.3273 39.3401L30.57 36.9056L28.5855 36.499L27.0735 36.9361L25.2465 38.4043L25.089 34.5016L27.5985 32.0931L25.3095 29.9731L0 19.6404L11.271 31.2531L22.8757 34.7856L16.1055 34.9625L23.6115 40.2158L28.9133 38.2727L29.8035 39.1565L27.621 42.0705L33.9735 46.6451L43.8323 38.2467L36.4605 37.1547L36.5543 36.5912L49.911 36.279L57.7245 25.9455L39.6735 31.0353L63.795 21.2304L74.5312 0.295898ZM27.3263 34.399L26.6715 34.9216L26.6783 35.6025L27.2948 35.2338L27.3263 34.399Z" fill="#3075C6"/>
<path d="M84.9812 23.6602H78.7092V19.9642H95.7892V23.6602H89.5172V39.5642H84.9812V23.6602ZM136.426 39.5642L132.646 34.1042H132.422H128.474V39.5642H123.938V19.9642H132.422C134.158 19.9642 135.661 20.2535 136.93 20.8322C138.218 21.4109 139.208 22.2322 139.898 23.2962C140.589 24.3602 140.934 25.6202 140.934 27.0762C140.934 28.5322 140.58 29.7922 139.87 30.8562C139.18 31.9015 138.19 32.7042 136.902 33.2642L141.298 39.5642H136.426ZM136.342 27.0762C136.342 25.9749 135.988 25.1349 135.278 24.5562C134.569 23.9589 133.533 23.6602 132.17 23.6602H128.474V30.4922H132.17C133.533 30.4922 134.569 30.1935 135.278 29.5962C135.988 28.9989 136.342 28.1589 136.342 27.0762ZM161.636 35.3642H152.536L150.8 39.5642H146.152L154.888 19.9642H159.368L168.132 39.5642H163.372L161.636 35.3642ZM160.208 31.9202L157.1 24.4162L153.992 31.9202H160.208ZM192.143 19.9642L183.659 39.5642H179.179L170.723 19.9642H175.623L181.587 33.9642L187.635 19.9642H192.143ZM213.156 35.9242V39.5642H197.98V19.9642H212.792V23.6042H202.488V27.8602H211.588V31.3882H202.488V35.9242H213.156ZM220.965 19.9642H225.501V35.8682H235.329V39.5642H220.965V19.9642Z" fill="white"/>
<path d="M106.49 23.6602H100.218V19.9642H117.298V23.6602H111.026V39.5642H106.49V23.6602Z" fill="#3075C6"/>
</svg>
