<svg width="236" height="47" viewBox="0 0 236 47" fill="none" xmlns="http://www.w3.org/2000/svg">
<path d="M74.5312 0L33.7793 27.8336L30.6375 31.7459L35.3273 39.0442L30.57 36.6097L28.5855 36.2031L27.0735 36.6402L25.2465 38.1084L25.089 34.2057L27.5985 31.7972L25.3095 29.6772L0 19.3445L11.271 30.9572L22.8757 34.4897L16.1055 34.6666L23.6115 39.9199L28.9133 37.9768L29.8035 38.8606L27.621 41.7746L33.9735 46.3492L43.8323 37.9508L36.4605 36.8588L36.5543 36.2953L49.911 35.9831L57.7245 25.6496L39.6735 30.7394L63.795 20.9345L74.5312 0ZM27.3263 34.1031L26.6715 34.6257L26.6783 35.3066L27.2948 34.9379L27.3263 34.1031Z" fill="#3075C6"/>
<path d="M84.9812 23.3643H78.7092V19.6683H95.7892V23.3643H89.5172V39.2683H84.9812V23.3643ZM136.426 39.2683L132.646 33.8083H132.422H128.474V39.2683H123.938V19.6683H132.422C134.158 19.6683 135.661 19.9576 136.93 20.5363C138.218 21.115 139.208 21.9363 139.898 23.0003C140.589 24.0643 140.934 25.3243 140.934 26.7803C140.934 28.2363 140.58 29.4963 139.87 30.5603C139.18 31.6056 138.19 32.4083 136.902 32.9683L141.298 39.2683H136.426ZM136.342 26.7803C136.342 25.679 135.988 24.839 135.278 24.2603C134.569 23.663 133.533 23.3643 132.17 23.3643H128.474V30.1963H132.17C133.533 30.1963 134.569 29.8976 135.278 29.3003C135.988 28.703 136.342 27.863 136.342 26.7803ZM161.636 35.0683H152.536L150.8 39.2683H146.152L154.888 19.6683H159.368L168.132 39.2683H163.372L161.636 35.0683ZM160.208 31.6243L157.1 24.1203L153.992 31.6243H160.208ZM192.143 19.6683L183.659 39.2683H179.179L170.723 19.6683H175.623L181.587 33.6683L187.635 19.6683H192.143ZM213.156 35.6283V39.2683H197.98V19.6683H212.792V23.3083H202.488V27.5643H211.588V31.0923H202.488V35.6283H213.156ZM220.965 19.6683H225.501V35.5723H235.329V39.2683H220.965V19.6683Z" fill="#313131"/>
<path d="M106.49 23.3643H100.218V19.6683H117.298V23.3643H111.026V39.2683H106.49V23.3643Z" fill="#3075C6"/>
</svg>
